<svg width="20" height="12" viewBox="0 0 20 12" fill="none" xmlns="http://www.w3.org/2000/svg">
<path d="M0.729977 7.74001L3.96248 10.9725C4.11875 11.1287 4.33067 11.2165 4.55164 11.2165C4.77261 11.2165 4.98454 11.1287 5.14081 10.9725C5.29704 10.8162 5.3848 10.6043 5.3848 10.3833C5.3848 10.1624 5.29704 9.95044 5.14081 9.79417L2.17831 6.83334H19.1666C19.3877 6.83334 19.5996 6.74554 19.7559 6.58926C19.9122 6.43298 20 6.22102 20 6C20 5.77899 19.9122 5.56703 19.7559 5.41075C19.5996 5.25447 19.3877 5.16667 19.1666 5.16667H2.12748L5.14081 2.15084C5.29704 1.99456 5.3848 1.78264 5.3848 1.56167C5.3848 1.3407 5.29704 1.12878 5.14081 0.972504C4.98454 0.816279 4.77261 0.728516 4.55164 0.728516C4.33067 0.728516 4.11875 0.816279 3.96248 0.972504L0.729144 4.205C0.262001 4.67469 -0.000156092 5.31024 6.97271e-08 5.97268C0.000156232 6.63512 0.262613 7.27054 0.729977 7.74001Z" fill="#3B3748"/>
</svg>
