<svg width="8" height="15" viewBox="0 0 8 15" fill="none" xmlns="http://www.w3.org/2000/svg">
<path d="M0.712707 0.79894C0.525236 0.986467 0.419921 1.24078 0.419921 1.50594C0.419921 1.7711 0.525236 2.02541 0.712707 2.21294L5.29871 6.79894C5.4812 6.98907 5.5831 7.2424 5.5831 7.50594C5.5831 7.76948 5.4812 8.02281 5.29871 8.21294L0.712708 12.7989C0.53055 12.9875 0.429756 13.2401 0.432034 13.5023C0.434312 13.7645 0.539481 14.0154 0.724889 14.2008C0.910297 14.3862 1.16111 14.4913 1.42331 14.4936C1.6855 14.4959 1.93811 14.3951 2.12671 14.2129L6.71271 9.62794C6.99134 9.34936 7.21236 9.01862 7.36316 8.65461C7.51395 8.2906 7.59157 7.90045 7.59157 7.50644C7.59157 7.11243 7.51395 6.72228 7.36316 6.35827C7.21236 5.99426 6.99134 5.66352 6.71271 5.38494L2.12671 0.79894C1.93918 0.611468 1.68487 0.506154 1.41971 0.506154C1.15454 0.506154 0.900235 0.611468 0.712707 0.79894Z" fill="#3B3748"/>
</svg>
