<svg width="20" height="15" viewBox="0 0 20 15" fill="none" xmlns="http://www.w3.org/2000/svg">
<path d="M18.5991 0.692507L7.08331 12.2075C7.00589 12.2852 6.91388 12.3469 6.81256 12.389C6.71124 12.4311 6.60261 12.4527 6.4929 12.4527C6.38318 12.4527 6.27455 12.4311 6.17323 12.389C6.07192 12.3469 5.9799 12.2852 5.90248 12.2075L1.44915 7.75001C1.37172 7.67228 1.27971 7.6106 1.17839 7.56851C1.07707 7.52643 0.968441 7.50477 0.858729 7.50477C0.749018 7.50477 0.640386 7.52643 0.539067 7.56851C0.437748 7.6106 0.345737 7.67228 0.268312 7.75001V7.75001C0.190582 7.82743 0.128905 7.91944 0.0868199 8.02076C0.0447352 8.12208 0.0230713 8.23071 0.0230713 8.34042C0.0230713 8.45013 0.0447352 8.55877 0.0868199 8.66008C0.128905 8.7614 0.190582 8.85342 0.268312 8.93084L4.72331 13.385C5.19327 13.8541 5.83014 14.1175 6.49415 14.1175C7.15815 14.1175 7.79502 13.8541 8.26498 13.385L19.78 1.87251C19.8576 1.7951 19.9192 1.70314 19.9612 1.6019C20.0032 1.50065 20.0248 1.39212 20.0248 1.28251C20.0248 1.17289 20.0032 1.06436 19.9612 0.963117C19.9192 0.861875 19.8576 0.769916 19.78 0.692507C19.7026 0.614776 19.6105 0.553099 19.5092 0.511014C19.4079 0.46893 19.2993 0.447266 19.1896 0.447266C19.0799 0.447266 18.9712 0.46893 18.8699 0.511014C18.7686 0.553099 18.6766 0.614776 18.5991 0.692507Z" fill="#3B3748"/>
</svg>
