<svg width="210" height="152" viewBox="0 0 210 152" fill="none" xmlns="http://www.w3.org/2000/svg">
<path d="M44.4945 129.118C42.8125 131.959 40.4112 134.313 37.53 135.944C34.3797 137.727 30.8928 138.844 27.2881 139.224V152H19.7091V139.224C16.1037 138.847 12.6162 137.73 9.46719 135.944C6.58594 134.313 4.18465 131.959 2.50268 129.118C0.800281 126.193 -0.0639749 122.86 0.00368917 119.48C-0.0604306 116.095 0.803458 112.756 2.50268 109.823C4.19067 106.986 6.59055 104.634 9.46719 102.997C12.6227 101.229 16.1078 100.119 19.7091 99.7367V87.043H27.2881V99.7367C30.8894 100.119 34.3744 101.229 37.53 102.997C40.4066 104.634 42.8065 106.986 44.4945 109.823C46.1851 112.76 47.0484 116.096 46.9935 119.48C47.0508 122.858 46.1872 126.189 44.4945 129.118ZM10.9625 127.936C13.3186 130.21 16.3655 131.643 19.6271 132.011V106.909C16.3677 107.285 13.323 108.717 10.9625 110.984C9.8929 112.115 9.06255 113.448 8.52067 114.904C7.97879 116.36 7.73645 117.909 7.80801 119.46C7.73292 121.011 7.97361 122.562 8.51567 124.018C9.05773 125.475 9.88999 126.807 10.9625 127.936ZM35.8913 127.936C36.9574 126.807 37.7857 125.477 38.3274 124.025C38.8691 122.573 39.1134 121.028 39.0458 119.48C39.1127 117.93 38.8682 116.382 38.3266 114.926C37.7849 113.471 36.957 112.138 35.8913 111.004C33.5227 108.737 30.4716 107.305 27.2062 106.929V131.95C30.4661 131.598 33.5186 130.188 35.8913 127.936Z" fill="#3B3748"/>
<path d="M18.7466 0H43.3272V7.07014H26.7353V53.7497H18.849L18.7466 0Z" fill="#3B3748"/>
<path d="M43.5923 28.0363C43.0448 25.5115 43.0196 22.9023 43.5184 20.3676C44.0172 17.8329 45.0294 15.4257 46.4936 13.2926C47.9577 11.1595 49.843 9.34529 52.0347 7.96027C54.2264 6.57526 56.6786 5.64843 59.2419 5.2364C69.9959 3.36188 78.5172 9.73933 80.4221 20.5178L80.8933 23.187L51.3352 28.3624C53.0149 34.8213 58.2587 38.7129 64.7521 37.5719C70.508 36.5735 73.2733 33.1708 74.7891 28.1585L81.0367 30.4405C80.2459 34.0284 78.3517 37.2824 75.617 39.7507C72.8823 42.2189 69.4429 43.7789 65.7763 44.2142C55.5548 46.0072 45.6407 39.6705 43.5923 28.0363ZM72.454 18.46C70.8153 12.7753 65.7558 10.3099 60.1637 11.2879C57.5361 11.77 55.1507 13.125 53.3981 15.1311C51.6454 17.1373 50.6293 19.6758 50.5159 22.3312L72.454 18.46Z" fill="#3B3748"/>
<path d="M85.0734 30.3794H88.9653C90.7064 27.2212 91.7715 23.4315 92.1607 16.4224L93.062 0H121.33V30.3794H126.942V46.1294H119.691V37.3885H92.1812V46.1294H85.0734V30.3794ZM113.484 30.3794V7.07014H99.6169L99.0843 16.7076C98.6336 24.1038 98.0191 27.2008 96.3599 30.4404L113.484 30.3794Z" fill="#3B3748"/>
<path d="M43.6753 54.5646H51.541V69.1329H68.9727V54.5646H76.8589V91.9734H68.9727V75.9178H51.541V91.9734H43.6753V54.5646Z" fill="#3B3748"/>
<path d="M85.1134 54.5646H92.6925V81.5618L110.595 54.5646H118.932V91.9734H111.353V64.9763L93.4504 91.9734H85.1134V54.5646Z" fill="#3B3748"/>
<path d="M154.308 83.6404C153.14 90.2419 146.79 94.3984 136.631 92.6258C127.372 90.9958 122.947 85.1685 124.115 78.567C124.37 77.1101 124.929 75.7222 125.754 74.4919L131.899 77.7723C131.535 78.3427 131.291 78.9803 131.182 79.6468C130.547 83.2736 133.865 85.7594 137.757 86.4522C142.981 87.369 146.237 85.413 146.852 82.0104C147.467 78.6077 145.008 76.3256 140.154 75.4699L137.02 74.9197L138.105 68.8071L141.096 69.3165C145.643 70.1315 148.04 68.3181 148.552 65.5064C149.064 62.6946 147.18 60.5959 143.001 59.8624C138.822 59.1289 135.668 60.4941 135.258 62.715C135.178 63.2417 135.178 63.7776 135.258 64.3043L128.314 65.3027C128.076 64.0916 128.076 62.8462 128.314 61.6352C129.338 55.8282 135.361 52.2217 144.251 53.7906C153.571 55.4206 156.991 60.4533 156.008 66.0158C155.714 67.9344 154.792 69.703 153.384 71.0475C151.977 72.392 150.164 73.2374 148.224 73.4528C152.465 75.5718 155.148 78.9541 154.308 83.6404Z" fill="#3B3748"/>
<path d="M162.357 54.5646H172.947L184.029 83.0899L195.09 54.5646H205.721V91.9734H198.224V65.4857L187.306 91.9734H180.71L169.874 65.4857V91.9734H162.295L162.357 54.5646Z" fill="#3B3748"/>
<path d="M51.3766 122.72C50.8262 120.193 50.7995 117.582 51.2982 115.045C51.797 112.508 52.8108 110.099 54.2775 107.965C55.7442 105.83 57.6331 104.016 59.8286 102.633C62.0242 101.25 64.4802 100.327 67.0467 99.92C77.7802 98.0455 86.3015 104.423 88.227 115.201L88.6981 117.871L59.14 123.046C60.8197 129.484 66.0431 133.396 72.5364 132.255C78.2924 131.257 81.0782 127.854 82.5735 122.842L88.821 125.124C88.0246 128.709 86.1287 131.96 83.3951 134.427C80.6615 136.895 77.2251 138.457 73.5606 138.898C63.3392 140.691 53.425 134.313 51.3766 122.72ZM80.2383 113.143C78.6201 107.459 73.5606 104.993 67.948 105.971C65.2942 106.441 62.8825 107.801 61.1155 109.826C59.3485 111.851 58.333 114.417 58.2387 117.096L80.2383 113.143Z" fill="#3B3748"/>
<path d="M92.8563 119.48C92.7845 116.893 93.2384 114.318 94.1909 111.909C95.1433 109.5 96.5747 107.308 98.3993 105.462C100.224 103.617 102.404 102.157 104.81 101.169C107.215 100.182 109.796 99.6878 112.398 99.7162C120.591 99.7162 126.204 103.037 128.928 109.15L122.476 113.021C121.587 111.129 120.156 109.54 118.364 108.453C116.571 107.366 114.496 106.828 112.398 106.909C105.966 106.909 100.886 111.717 100.886 119.419C100.886 127.121 105.741 131.929 112.398 131.929C114.581 132.044 116.748 131.501 118.616 130.37C120.484 129.24 121.965 127.575 122.865 125.593L129.154 129.444C127.558 132.463 125.14 134.976 122.177 136.694C119.215 138.413 115.826 139.268 112.398 139.163C109.789 139.244 107.191 138.788 104.767 137.824C102.343 136.861 100.145 135.41 98.3103 133.562C96.4759 131.715 95.0448 129.51 94.1063 127.087C93.1678 124.664 92.7423 122.074 92.8563 119.48Z" fill="#3B3748"/>
<path d="M143.022 107.785H131.265V100.796H162.707V107.805H150.97V138.205H143.084L143.022 107.785Z" fill="#3B3748"/>
<path d="M180.561 27.4454H207.948C208.491 27.4454 209.012 27.2307 209.397 26.8486C209.781 26.4665 209.997 25.9483 209.997 25.408C209.997 24.8676 209.781 24.3494 209.397 23.9673C209.012 23.5852 208.491 23.3705 207.948 23.3705H180.561C180.018 23.3705 179.497 23.5852 179.113 23.9673C178.729 24.3494 178.513 24.8676 178.513 25.408C178.513 25.9483 178.729 26.4665 179.113 26.8486C179.497 27.2307 180.018 27.4454 180.561 27.4454Z" fill="#3B3748"/>
<path fill-rule="evenodd" clip-rule="evenodd" d="M130.659 24.1302C130.659 14.1912 138.482 6.05102 148.454 5.11001L148.927 6.37803C143.869 9.95051 140.594 15.7216 140.594 22.2256C140.594 31.3057 146.983 38.9647 155.683 41.1899L155.691 42.5437C154.004 42.9984 152.226 43.2413 150.391 43.2413C139.513 43.2413 130.659 34.7044 130.659 24.1302Z" fill="#3B3748"/>
<path fill-rule="evenodd" clip-rule="evenodd" d="M154.508 7.03813L154.96 5.74568C164.244 6.90336 171.462 14.4165 171.462 23.5732C171.462 29.5194 168.412 34.7799 163.735 38.0477L162.722 37.1263C164.583 33.8929 165.638 30.1905 165.638 26.255C165.638 18.2034 161.216 11.11 154.508 7.03813Z" fill="#3B3748"/>
</svg>
