<?xml version="1.0" encoding="UTF-8" standalone="no"?>
<!DOCTYPE svg PUBLIC "-//W3C//DTD SVG 1.1//EN" "http://www.w3.org/Graphics/SVG/1.1/DTD/svg11.dtd">
<svg width="100%" height="100%" viewBox="0 0 360 652" version="1.1" xmlns="http://www.w3.org/2000/svg" xmlns:xlink="http://www.w3.org/1999/xlink" xml:space="preserve" xmlns:serif="http://www.serif.com/" style="fill-rule:evenodd;clip-rule:evenodd;stroke-linecap:round;stroke-linejoin:round;">
    <g transform="matrix(1,0,0,1,0,-68)">
        <path d="M176.207,163.752C176.207,163.752 149.152,165.788 152.434,182.674C154.862,195.195 174.81,196.512 189.835,190.244" style="fill:none;fill-rule:nonzero;stroke:rgb(0,185,152);stroke-width:4px;"/>
        <path d="M134.233,104.204C153.615,107.378 172.201,114.028 189.051,124.098L175.003,155.63" style="fill:none;fill-rule:nonzero;stroke:rgb(0,185,152);stroke-width:4px;"/>
        <path d="M162.311,71.087C134.289,105.668 102.37,136.899 67.187,164.16C57.869,151.492 48.721,137.809 46.854,122.196C44.986,106.583 52.816,88.69 67.92,84.295C80.727,80.561 94.282,87.315 104.602,95.769C123.863,79.637 139.13,73.876 162.306,71.084" style="fill:none;fill-rule:nonzero;stroke:rgb(0,185,152);stroke-width:4px;"/>
        <path d="M94.978,160.486C95.897,165.286 96.68,170.254 95.629,175.025C94.579,179.797 91.28,184.373 86.549,185.572C81.36,186.881 75.869,183.778 72.748,179.423C69.628,175.068 68.38,169.702 67.198,164.48" style="fill:none;fill-rule:nonzero;stroke:rgb(0,185,152);stroke-width:4px;"/>
        <path d="M87.734,177.943C93.017,183.186 99.564,188.858 106.893,187.558C112.163,186.617 116.172,182.185 118.659,177.436C122.749,169.582 123.85,160.511 121.758,151.906" style="fill:none;fill-rule:nonzero;stroke:rgb(0,185,152);stroke-width:4px;"/>
        <path d="M86.392,193.543L71.955,213.099" style="fill:none;fill-rule:nonzero;stroke:rgb(0,185,152);stroke-width:4px;"/>
        <path d="M129.015,138.718C130.83,138.112 132.483,137.098 133.846,135.755C135.21,134.411 136.247,132.773 136.88,130.967" style="fill:none;fill-rule:nonzero;stroke:rgb(0,185,152);stroke-width:4px;"/>
        <path d="M207.238,172.608L170.863,181.368L211.357,128.564L221.439,139.56" style="fill:none;fill-rule:nonzero;stroke:rgb(0,185,152);stroke-width:4px;"/>
        <path d="M266.446,213.561C273.604,199.839 278.308,183.982 274.901,168.89C271.495,153.799 259.904,144.623 242.582,140.865C236.673,139.582 210.375,136.995 210.634,144.815C210.809,150.075 232.87,154.349 236.659,155.141C240.447,155.933 245.147,156.847 249.51,157.798C239.619,155.7 212.836,148.883 208.491,155.923C204.841,165.855 235.243,167.855 244.552,170.003C236.088,169.273 208.119,162.579 206.907,171.251C205.288,179.54 231.729,183.262 241.935,183.167" style="fill:none;fill-rule:nonzero;stroke:rgb(0,185,152);stroke-width:4px;"/>
        <path d="M242.855,510.599C236.512,528.547 233.488,547.434 234.182,566.458L267.526,569.229" style="fill:none;fill-rule:nonzero;stroke:rgb(244,9,52);stroke-width:4px;"/>
        <path d="M179.051,543.704C184.233,557.018 189.953,571.056 201.452,579.533C206.094,582.957 212.71,585.226 217.463,581.962C220.375,579.962 221.793,576.301 221.94,572.771C222.086,569.242 221.145,565.765 220.213,562.355C218.031,554.391 215.849,546.426 213.667,538.46" style="fill:none;fill-rule:nonzero;stroke:rgb(244,9,52);stroke-width:4px;"/>
        <path d="M185.437,557.376L214.427,547.725" style="fill:none;fill-rule:nonzero;stroke:rgb(244,9,52);stroke-width:4px;"/>
        <path d="M213.986,584.454L229.208,614.35" style="fill:none;fill-rule:nonzero;stroke:rgb(244,9,52);stroke-width:4px;"/>
        <path d="M206.619,625.744L242.051,608.057" style="fill:none;fill-rule:nonzero;stroke:rgb(244,9,52);stroke-width:4px;"/>
        <path d="M272.845,579.196C279.763,580.511 287.317,577.671 291.627,572.096C295.937,566.52 296.812,558.499 293.795,552.134" style="fill:none;fill-rule:nonzero;stroke:rgb(244,9,52);stroke-width:4px;"/>
        <path d="M201.626,519.004C244.08,511.331 285.507,498.784 325.083,481.611C318.67,467.784 311.312,453.628 298.917,444.757C286.523,435.885 267.669,434.198 256.899,444.972C247.752,454.111 247.166,468.777 249.534,481.49C226.848,490.327 214.824,500.611 201.637,519.003" style="fill:none;fill-rule:nonzero;stroke:rgb(244,9,52);stroke-width:4px;"/>
        <path d="M308.988,503.509C312.638,506.538 316.501,509.511 321.036,510.844C325.571,512.177 331.008,511.517 334.235,508.048C337.768,504.251 337.693,498.132 335.452,493.458C333.21,488.784 329.226,485.21 325.346,481.77" style="fill:none;fill-rule:nonzero;stroke:rgb(244,9,52);stroke-width:4px;"/>
        <path d="M327.202,505.497C329.19,512.433 330.954,520.639 326.43,526.262C323.174,530.311 317.537,531.638 312.34,531.543C303.76,531.353 295.539,528.057 289.205,522.266" style="fill:none;fill-rule:nonzero;stroke:rgb(244,9,52);stroke-width:4px;"/>
        <path d="M262.454,518.314L262.902,525.727" style="fill:none;fill-rule:nonzero;stroke:rgb(244,9,52);stroke-width:4px;"/>
        <path d="M318.633,547.704L317.949,571.253" style="fill:none;fill-rule:nonzero;stroke:rgb(244,9,52);stroke-width:4px;"/>
        <path d="M151.885,448.846C162.119,466.747 166.536,487.386 164.527,507.907L129.382,514.703" style="fill:none;fill-rule:nonzero;stroke:rgb(113,0,255);stroke-width:4px;"/>
        <path d="M132.672,458.221L132.672,468.964" style="fill:none;fill-rule:nonzero;stroke:rgb(113,0,255);stroke-width:4px;"/>
        <path d="M98.93,458.358C93.916,454.301 88.74,450.152 82.562,448.272C76.383,446.392 68.913,447.305 64.696,452.188C60.358,457.206 60.647,464.764 62.498,471.133C67.757,489.226 84.396,503.461 103.087,505.848" style="fill:none;fill-rule:nonzero;stroke:rgb(113,0,255);stroke-width:4px;"/>
        <path d="M82.879,464.734C80.868,470.141 82.332,476.671 86.458,480.704" style="fill:none;fill-rule:nonzero;stroke:rgb(113,0,255);stroke-width:4px;"/>
        <path d="M116.878,520.245C116.232,521.524 115.573,522.857 115.539,524.29C115.506,525.723 116.302,527.282 117.687,527.644C119.854,528.212 121.533,525.799 122.471,523.766C123.408,521.732 124.176,518.841 122.319,517.55C121.071,516.682 119.257,517.194 118.197,518.28C117.136,519.365 116.646,520.869 116.188,522.316" style="fill:none;fill-rule:nonzero;stroke:rgb(113,0,255);stroke-width:4px;"/>
        <path d="M111.615,427.412C95.794,417.463 74.233,417.536 58.478,427.593C53.634,430.685 49.236,434.755 46.791,439.956C44.345,445.157 44.112,451.602 47.14,456.493C34.824,461.746 26.914,475.789 28.806,489.045C30.699,502.3 42.219,513.571 55.514,515.169C43.661,519.178 31.318,523.487 22.657,532.525C13.995,541.563 10.5,556.856 18.356,566.599C24.123,573.751 34.4,575.957 43.447,574.354C52.493,572.75 60.618,567.969 68.437,563.149" style="fill:none;fill-rule:nonzero;stroke:rgb(113,0,255);stroke-width:4px;"/>
        <path d="M32.874,424.948L20.931,423.585" style="fill:none;fill-rule:nonzero;stroke:rgb(113,0,255);stroke-width:4px;"/>
        <path d="M28.251,446.827L14.975,446.827" style="fill:none;fill-rule:nonzero;stroke:rgb(113,0,255);stroke-width:4px;"/>
        <path d="M20.284,469.89L9,469.89" style="fill:none;fill-rule:nonzero;stroke:rgb(113,0,255);stroke-width:4px;"/>
        <path d="M90.187,521.175C92.951,528.282 97.765,534.409 104.017,538.776" style="fill:none;fill-rule:nonzero;stroke:rgb(113,0,255);stroke-width:4px;"/>
        <path d="M304.978,132.27L308.244,134L311.337,135.636C315.053,129.555 319.072,123.583 322.784,117.499C323.49,116.346 325.15,114.407 324.1,113.554C322.947,112.617 322.318,112.312 321.614,111.848L308.124,103C304.52,112.569 300.312,119.182 294.205,125.713L296.136,126.892L287,122.106" style="fill:none;fill-rule:nonzero;stroke:rgb(113,0,255);stroke-width:4px;"/>
        <path d="M333.956,258.251C330.124,259.599 327.145,259.192 322.768,257C323.132,265.076 321.855,273.143 319.014,280.712C320.602,281.013 318.263,280.727 321.77,281.136C318.066,280.699 316.701,280.549 313,280.11" style="fill:none;fill-rule:nonzero;stroke:rgb(113,0,255);stroke-width:4px;"/>
        <path d="M13.001,340.251C16.833,341.599 19.812,341.192 24.189,339C23.825,347.076 25.102,355.143 27.943,362.712C26.356,363.013 28.694,362.727 25.188,363.136C28.891,362.699 30.256,362.549 33.957,362.11" style="fill:none;fill-rule:nonzero;stroke:rgb(113,0,255);stroke-width:4px;"/>
        <path d="M204.46,457.167L200.072,457.743L195.917,458.29C194.287,449.909 192.271,441.529 190.641,433.15C190.331,431.56 189.278,428.698 190.813,428.17C192.496,427.602 193.331,427.521 194.317,427.297L213.153,423C213.208,435.248 215.158,444.427 219.283,454.305L216.625,454.822L228.88,453.266" style="fill:none;fill-rule:nonzero;stroke:rgb(113,0,255);stroke-width:4px;"/>
        <path d="M396.886,356.679C388.904,340.672 373.976,328.269 356.784,323.366C345.954,320.278 333.979,320.166 323.764,324.86C313.549,329.554 305.473,339.53 304.779,350.775C304.085,362.02 311.865,373.696 322.916,375.856C326.595,376.579 331.612,375.188 331.712,371.43C331.772,368.789 329.225,366.869 326.808,365.803C314.576,360.444 299.027,365.823 291.782,377.008C284.537,388.194 285.557,403.781 293.242,414.71" style="fill:none;fill-rule:nonzero;stroke:rgb(255,212,0);stroke-width:4px;stroke-linejoin:miter;stroke-miterlimit:10;"/>
        <path d="M39.525,314.875C51.25,297.333 55.218,274.786 50.181,254.308C47.006,241.408 40.115,229.078 29.329,221.362C18.544,213.645 3.601,211.212 -8.323,217.08" style="fill:none;fill-rule:nonzero;stroke:rgb(255,212,0);stroke-width:4px;stroke-linejoin:miter;stroke-miterlimit:10;"/>
    </g>
</svg>
