<?xml version="1.0" encoding="UTF-8" standalone="no"?>
<!DOCTYPE svg PUBLIC "-//W3C//DTD SVG 1.1//EN" "http://www.w3.org/Graphics/SVG/1.1/DTD/svg11.dtd">
<svg width="100%" height="100%" viewBox="0 0 1440 760" version="1.1" xmlns="http://www.w3.org/2000/svg" xmlns:xlink="http://www.w3.org/1999/xlink" xml:space="preserve" xmlns:serif="http://www.serif.com/" style="fill-rule:evenodd;clip-rule:evenodd;stroke-linecap:round;stroke-linejoin:round;">
    <path d="M324.559,540.125C324.559,540.125 286.096,543.019 290.762,567.025C294.213,584.827 322.574,586.699 343.934,577.787" style="fill:none;fill-rule:nonzero;stroke:rgb(0,185,152);stroke-width:6px;"/>
    <path d="M264.886,455.465C292.441,459.979 318.863,469.432 342.819,483.749L322.847,528.576" style="fill:none;fill-rule:nonzero;stroke:rgb(0,185,152);stroke-width:6px;"/>
    <path d="M304.804,408.384C264.965,457.546 219.586,501.947 169.566,540.705C156.32,522.694 143.314,503.241 140.659,481.044C138.005,458.847 149.136,433.41 170.609,427.161C188.817,421.853 208.087,431.454 222.759,443.474C250.142,420.54 271.847,412.349 304.796,408.379" style="fill:none;fill-rule:nonzero;stroke:rgb(0,185,152);stroke-width:6px;"/>
    <path d="M209.078,535.481C210.384,542.304 211.496,549.367 210.003,556.151C208.51,562.935 203.819,569.44 197.093,571.146C189.716,573.006 181.91,568.595 177.474,562.404C173.037,556.212 171.264,548.583 169.582,541.16" style="fill:none;fill-rule:nonzero;stroke:rgb(0,185,152);stroke-width:6px;"/>
    <path d="M198.779,560.3C206.29,567.754 215.597,575.818 226.017,573.969C233.509,572.631 239.209,566.331 242.745,559.579C248.559,548.412 250.124,535.516 247.151,523.283" style="fill:none;fill-rule:nonzero;stroke:rgb(0,185,152);stroke-width:6px;"/>
    <path d="M196.871,582.477L176.346,610.279" style="fill:none;fill-rule:nonzero;stroke:rgb(0,185,152);stroke-width:6px;"/>
    <path d="M257.467,504.533C260.048,503.672 262.398,502.231 264.336,500.321C266.274,498.411 267.749,496.082 268.648,493.514" style="fill:none;fill-rule:nonzero;stroke:rgb(0,185,152);stroke-width:6px;"/>
    <path d="M368.675,552.715L316.962,565.169L374.531,490.097L388.864,505.731" style="fill:none;fill-rule:nonzero;stroke:rgb(0,185,152);stroke-width:6px;"/>
    <path d="M452.851,610.937C463.027,591.429 469.714,568.884 464.871,547.429C460.029,525.975 443.55,512.928 418.923,507.586C410.522,505.763 373.135,502.084 373.504,513.202C373.752,520.68 405.116,526.756 410.502,527.882C415.889,529.008 422.57,530.308 428.773,531.66C414.711,528.677 376.634,518.985 370.457,528.993C365.267,543.113 408.489,545.957 421.724,549.012C409.691,547.973 369.928,538.456 368.206,550.785C365.903,562.569 403.493,567.861 418.004,567.726" style="fill:none;fill-rule:nonzero;stroke:rgb(0,185,152);stroke-width:6px;"/>
    <path d="M1113.68,545.274C1104.17,572.169 1099.64,600.47 1100.68,628.977L1150.65,633.129" style="fill:none;fill-rule:nonzero;stroke:rgb(244,9,52);stroke-width:6px;"/>
    <path d="M1018.07,594.881C1025.83,614.832 1034.4,635.867 1051.64,648.571C1058.59,653.701 1068.5,657.101 1075.63,652.21C1079.99,649.212 1082.12,643.727 1082.34,638.438C1082.55,633.149 1081.15,627.939 1079.75,622.829C1076.48,610.896 1073.21,598.96 1069.94,587.022" style="fill:none;fill-rule:nonzero;stroke:rgb(244,9,52);stroke-width:6px;"/>
    <path d="M1027.64,615.369L1071.08,600.907" style="fill:none;fill-rule:nonzero;stroke:rgb(244,9,52);stroke-width:6px;"/>
    <path d="M1070.42,655.943L1093.23,700.742" style="fill:none;fill-rule:nonzero;stroke:rgb(244,9,52);stroke-width:6px;"/>
    <path d="M1059.38,717.816L1112.47,691.313" style="fill:none;fill-rule:nonzero;stroke:rgb(244,9,52);stroke-width:6px;"/>
    <path d="M1158.62,648.066C1168.98,650.036 1180.3,645.78 1186.76,637.425C1193.22,629.071 1194.53,617.051 1190.01,607.513" style="fill:none;fill-rule:nonzero;stroke:rgb(244,9,52);stroke-width:6px;"/>
    <path d="M1051.9,557.868C1115.51,546.371 1177.59,527.568 1236.89,501.835C1227.28,481.116 1216.26,459.904 1197.68,446.61C1179.11,433.315 1150.86,430.788 1134.72,446.932C1121.01,460.627 1120.14,482.604 1123.69,501.655C1089.69,514.896 1071.67,530.307 1051.91,557.867" style="fill:none;fill-rule:nonzero;stroke:rgb(244,9,52);stroke-width:6px;"/>
    <path d="M1212.78,534.649C1218.25,539.188 1224.03,543.643 1230.83,545.641C1237.63,547.639 1245.77,546.649 1250.61,541.451C1255.9,535.761 1255.79,526.593 1252.43,519.589C1249.07,512.585 1243.1,507.229 1237.29,502.074" style="fill:none;fill-rule:nonzero;stroke:rgb(244,9,52);stroke-width:6px;"/>
    <path d="M1240.07,537.628C1243.05,548.022 1245.69,560.319 1238.91,568.745C1234.03,574.812 1225.59,576.801 1217.8,576.658C1204.94,576.374 1192.62,571.434 1183.13,562.756" style="fill:none;fill-rule:nonzero;stroke:rgb(244,9,52);stroke-width:6px;"/>
    <path d="M1143.04,556.834L1143.72,567.943" style="fill:none;fill-rule:nonzero;stroke:rgb(244,9,52);stroke-width:6px;"/>
    <path d="M1227.23,600.875L1226.2,636.162" style="fill:none;fill-rule:nonzero;stroke:rgb(244,9,52);stroke-width:6px;"/>
    <path d="M494.24,124.462C501.624,152.499 500.113,182.138 489.916,209.28L439.708,205.72" style="fill:none;fill-rule:nonzero;stroke:rgb(113,0,255);stroke-width:6px;"/>
    <path d="M464.732,130.202L460.822,144.794" style="fill:none;fill-rule:nonzero;stroke:rgb(113,0,255);stroke-width:6px;"/>
    <path d="M418.853,118.109C413.519,110.774 407.999,103.255 400.291,98.453C392.584,93.651 382.106,92.173 374.601,97.27C366.882,102.507 364.525,112.876 364.72,122.201C365.279,148.689 382.698,174.078 407.216,184.123" style="fill:none;fill-rule:nonzero;stroke:rgb(113,0,255);stroke-width:6px;"/>
    <path d="M394.73,120.927C390.031,127.539 389.643,136.941 393.78,143.92" style="fill:none;fill-rule:nonzero;stroke:rgb(113,0,255);stroke-width:6px;"/>
    <path d="M420.708,208.696C419.364,210.198 417.984,211.769 417.417,213.703C416.85,215.637 417.365,218.045 419.114,219.041C421.851,220.6 425.008,217.935 427.022,215.514C429.036,213.092 431.13,209.446 429.078,207.016C427.699,205.384 425.05,205.419 423.214,206.507C421.378,207.595 420.165,209.459 419.017,211.258" style="fill:none;fill-rule:nonzero;stroke:rgb(113,0,255);stroke-width:6px;"/>
    <path d="M447.345,80.693C429.476,61.423 400.165,53.675 375.106,61.6C367.402,64.038 359.947,67.965 354.733,74.139C349.518,80.313 346.856,88.981 349.189,96.727C330.55,99.379 314.695,115.575 312.441,134.267C310.187,152.959 321.733,172.461 339.209,179.469C321.65,180.601 303.318,181.961 288.265,191.085C273.211,200.208 262.898,219.707 270.023,235.8C275.253,247.612 288.409,254.349 301.279,255.464C314.149,256.578 326.925,253.041 339.299,249.34" style="fill:none;fill-rule:nonzero;stroke:rgb(113,0,255);stroke-width:6px;"/>
    <path d="M341.294,48.69L325.568,42.493" style="fill:none;fill-rule:nonzero;stroke:rgb(113,0,255);stroke-width:6px;"/>
    <path d="M327.051,76.724L309.019,71.892" style="fill:none;fill-rule:nonzero;stroke:rgb(113,0,255);stroke-width:6px;"/>
    <path d="M307.838,105.149L292.512,101.042" style="fill:none;fill-rule:nonzero;stroke:rgb(113,0,255);stroke-width:6px;"/>
    <path d="M384.118,200.245C385.285,210.905 389.593,220.978 396.496,229.185" style="fill:none;fill-rule:nonzero;stroke:rgb(113,0,255);stroke-width:6px;"/>
    <path d="M1350.44,268.049L1355.25,270.593L1359.79,273C1365.26,264.055 1371.17,255.273 1376.63,246.325C1377.67,244.629 1380.11,241.776 1378.57,240.523C1376.87,239.145 1375.94,238.696 1374.91,238.013L1355.07,225C1349.77,239.073 1343.58,248.801 1334.6,258.406L1337.44,260.14L1324,253.1" style="fill:none;fill-rule:nonzero;stroke:rgb(255,212,0);stroke-width:6px;"/>
    <path d="M1039,138.865C1044.72,140.876 1049.16,140.269 1055.69,137C1055.15,149.047 1057.05,161.078 1061.29,172.368C1058.92,172.817 1062.41,172.39 1057.18,173C1062.7,172.349 1064.74,172.124 1070.26,171.47" style="fill:none;fill-rule:nonzero;stroke:rgb(113,0,255);stroke-width:6px;"/>
    <path d="M374,325.865C379.717,327.876 384.159,327.269 390.688,324C390.145,336.047 392.05,348.078 396.288,359.368C393.92,359.817 397.407,359.39 392.177,360C397.701,359.349 399.737,359.124 405.258,358.47" style="fill:none;fill-rule:nonzero;stroke:rgb(113,0,255);stroke-width:6px;"/>
    <path d="M594.257,77.865C588.541,79.876 584.099,79.269 577.57,76C578.112,88.047 576.208,100.078 571.97,111.368C574.338,111.817 570.851,111.39 576.08,112C570.557,111.349 568.52,111.124 563,110.47" style="fill:none;fill-rule:nonzero;stroke:rgb(113,0,255);stroke-width:6px;"/>
    <path d="M1358.72,577.313L1352.13,578.179L1345.89,579C1343.44,566.412 1340.41,553.828 1337.96,541.243C1337.5,538.855 1335.92,534.557 1338.22,533.765C1340.75,532.911 1342,532.791 1343.48,532.453L1371.77,526C1371.85,544.395 1374.78,558.179 1380.98,573.015L1376.99,573.792L1395.39,571.455" style="fill:none;fill-rule:nonzero;stroke:rgb(113,0,255);stroke-width:6px;"/>
    <path d="M140.716,118.313L134.126,119.179L127.886,120C125.438,107.412 122.411,94.828 119.962,82.243C119.498,79.855 117.915,75.557 120.22,74.765C122.748,73.912 124.002,73.791 125.483,73.453L153.772,67C153.855,85.395 156.784,99.18 162.979,114.015L158.987,114.792L177.391,112.455" style="fill:none;fill-rule:nonzero;stroke:rgb(113,0,255);stroke-width:6px;"/>
    <path d="M1053.33,388.783C1067.33,374.567 1075.01,354.325 1073.97,334.409C1073.31,321.862 1069.09,309.186 1060.44,300.105C1051.79,291.024 1038.34,286.113 1026.22,289.45C1014.1,292.788 1004.6,305.222 1006.32,317.666C1006.89,321.81 1010.17,326.601 1014.17,325.346C1016.98,324.454 1018.09,321.071 1018.34,318.135C1019.56,303.287 1008.26,288.827 993.835,285.229C979.41,281.632 963.33,288.349 954.578,300.414" style="fill:none;fill-rule:nonzero;stroke:rgb(244,9,52);stroke-width:6px;stroke-linejoin:miter;stroke-miterlimit:10;"/>
    <path d="M105.205,363.725C135.82,355.274 162.522,333.488 176.927,305.203C186,287.383 190.278,266.555 185.581,247.154C180.884,227.753 166.253,210.28 146.895,205.237" style="fill:none;fill-rule:nonzero;stroke:rgb(255,212,0);stroke-width:6px;stroke-linejoin:miter;stroke-miterlimit:10;"/>
    <path d="M661.795,148.29C684.422,126.002 716.639,113.771 748.337,115.438C768.307,116.49 788.483,123.2 802.936,136.968C817.39,150.736 825.206,172.144 819.895,191.43" style="fill:none;fill-rule:nonzero;stroke:rgb(255,212,0);stroke-width:6px;stroke-linejoin:miter;stroke-miterlimit:10;"/>
</svg>
