<svg width="315" height="228" viewBox="0 0 315 228" fill="none" xmlns="http://www.w3.org/2000/svg">
<path d="M66.7417 193.677C64.2188 197.939 60.6168 201.469 56.2949 203.915C51.5696 206.591 46.3392 208.266 40.9321 208.836V228H29.5636V208.836C24.1556 208.271 18.9243 206.595 14.2008 203.915C9.87891 201.469 6.27697 197.939 3.75402 193.677C1.20042 189.289 -0.0959624 184.289 0.00553376 179.221C-0.0906459 174.143 1.20519 169.134 3.75402 164.734C6.286 160.479 9.88582 156.951 14.2008 154.495C18.9341 151.843 24.1616 150.179 29.5636 149.605V130.565H40.9321V149.605C46.3341 150.179 51.5616 151.843 56.2949 154.495C60.6099 156.951 64.2097 160.479 66.7417 164.734C69.2777 169.14 70.5726 174.144 70.4902 179.221C70.5762 184.288 69.2808 189.283 66.7417 193.677ZM16.4437 191.904C19.9778 195.314 24.5483 197.464 29.4407 198.017V160.363C24.5515 160.927 19.9845 163.075 16.4437 166.476C14.8394 168.172 13.5938 170.171 12.781 172.355C11.9682 174.539 11.6047 176.864 11.712 179.19C11.5994 181.517 11.9604 183.843 12.7735 186.027C13.5866 188.212 14.835 190.211 16.4437 191.904ZM53.8369 191.904C55.436 190.211 56.6785 188.216 57.4911 186.038C58.3037 183.86 58.6701 181.542 58.5687 179.221C58.6691 176.895 58.3023 174.573 57.4899 172.39C56.6774 170.207 55.4355 168.207 53.8369 166.506C50.2841 163.105 45.7074 160.958 40.8092 160.394V197.925C45.6992 197.397 50.2779 195.281 53.8369 191.904Z" fill="#3B3748"/>
<path d="M28.1199 0H64.9907V10.6052H40.1029V80.6245H28.2736L28.1199 0Z" fill="#3B3748"/>
<path d="M65.3885 42.0544C64.5672 38.2673 64.5294 34.3535 65.2776 30.5514C66.0257 26.7493 67.5442 23.1385 69.7403 19.9389C71.9365 16.7393 74.7645 14.0179 78.0521 11.9404C81.3396 9.86289 85.0179 8.47265 88.8629 7.85461C104.994 5.04283 117.776 14.609 120.633 30.7767L121.34 34.7804L77.0028 42.5435C79.5223 52.2319 87.3881 58.0693 97.1281 56.3578C105.762 54.8602 109.91 49.7562 112.184 42.2378L121.555 45.6608C120.369 51.0426 117.528 55.9236 113.426 59.626C109.324 63.3283 104.164 65.6684 98.6644 66.3213C83.3323 69.0108 68.4611 59.5058 65.3885 42.0544ZM108.681 27.69C106.223 19.163 98.6337 15.4648 90.2456 16.9319C86.3041 17.655 82.7261 19.6875 80.0971 22.6967C77.4682 25.706 75.9439 29.5137 75.7738 33.4969L108.681 27.69Z" fill="#3B3748"/>
<path d="M127.61 45.5691H133.448C136.06 40.8318 137.657 35.1472 138.241 24.6336L139.593 0H181.994V45.5691H190.413V69.1941H179.536V56.0827H138.272V69.1941H127.61V45.5691ZM170.227 45.5691V10.6052H149.425L148.626 25.0614C147.95 36.1557 147.029 40.8012 144.54 45.6607L170.227 45.5691Z" fill="#3B3748"/>
<path d="M65.5129 81.8469H77.3115V103.699H103.459V81.8469H115.288V137.96H103.459V113.877H77.3115V137.96H65.5129V81.8469Z" fill="#3B3748"/>
<path d="M127.67 81.8469H139.039V122.343L165.893 81.8469H178.398V137.96H167.03V97.4645L140.176 137.96H127.67V81.8469Z" fill="#3B3748"/>
<path d="M231.462 125.461C229.711 135.363 220.186 141.598 204.946 138.939C191.058 136.494 184.421 127.753 186.172 117.85C186.556 115.665 187.393 113.583 188.63 111.738L197.848 116.658C197.303 117.514 196.937 118.47 196.773 119.47C195.82 124.91 200.798 128.639 206.636 129.678C214.471 131.054 219.356 128.12 220.278 123.016C221.2 117.912 217.513 114.488 210.231 113.205L205.53 112.38L207.158 103.211L211.644 103.975C218.465 105.197 222.06 102.477 222.828 98.2596C223.596 94.0419 220.77 90.8939 214.502 89.7936C208.233 88.6933 203.502 90.7411 202.887 94.0725C202.766 94.8625 202.766 95.6664 202.887 96.4565L192.471 97.954C192.114 96.1374 192.114 94.2693 192.471 92.4527C194.007 83.7423 203.041 78.3326 216.376 80.6859C230.356 83.131 235.487 90.68 234.012 99.0236C233.571 101.902 232.187 104.555 230.077 106.571C227.966 108.588 225.245 109.856 222.337 110.179C228.697 113.358 232.722 118.431 231.462 125.461Z" fill="#3B3748"/>
<path d="M243.535 81.8469H259.42L276.043 124.635L292.635 81.8469H308.581V137.96H297.336V98.2285L280.959 137.96H271.065L254.811 98.2285V137.96H243.443L243.535 81.8469Z" fill="#3B3748"/>
<path d="M77.065 184.08C76.2392 180.29 76.1992 176.373 76.9474 172.567C77.6955 168.762 79.2162 165.148 81.4162 161.947C83.6163 158.746 86.4496 156.025 89.743 153.95C93.0363 151.875 96.7204 150.49 100.57 149.88C116.67 147.068 129.452 156.634 132.341 172.802L133.047 176.806L88.71 184.569C91.2295 194.227 99.0646 200.095 108.805 198.383C117.439 196.886 121.617 191.782 123.86 184.263L133.232 187.686C132.037 193.064 129.193 197.94 125.093 201.641C120.992 205.342 115.838 207.685 110.341 208.347C95.0088 211.036 80.1375 201.47 77.065 184.08ZM120.357 169.715C117.93 161.188 110.341 157.49 101.922 158.957C97.9413 159.661 94.3238 161.702 91.6733 164.739C89.0227 167.776 87.4996 171.625 87.3581 175.644L120.357 169.715Z" fill="#3B3748"/>
<path d="M139.284 179.22C139.177 175.339 139.858 171.477 141.286 167.864C142.715 164.251 144.862 160.961 147.599 158.193C150.336 155.425 153.606 153.235 157.214 151.754C160.822 150.273 164.694 149.532 168.597 149.574C180.887 149.574 189.306 154.556 193.392 163.725L183.714 169.532C182.38 166.694 180.235 164.31 177.546 162.679C174.857 161.048 171.744 160.243 168.597 160.363C158.949 160.363 151.329 167.576 151.329 179.129C151.329 190.681 158.611 197.894 168.597 197.894C171.872 198.067 175.123 197.252 177.924 195.556C180.726 193.86 182.947 191.362 184.298 188.389L193.73 194.166C191.336 198.695 187.71 202.464 183.266 205.041C178.822 207.619 173.739 208.902 168.597 208.744C164.683 208.865 160.786 208.182 157.15 206.737C153.514 205.291 150.217 203.114 147.465 200.343C144.714 197.572 142.567 194.265 141.159 190.631C139.752 186.996 139.113 183.112 139.284 179.22Z" fill="#3B3748"/>
<path d="M214.534 161.677H196.897V151.194H244.061V161.708H226.455V207.307H214.626L214.534 161.677Z" fill="#3B3748"/>
<path d="M270.842 41.1681H311.922C312.737 41.1681 313.519 40.8461 314.095 40.273C314.671 39.6998 314.995 38.9225 314.995 38.112C314.995 37.3014 314.671 36.5241 314.095 35.951C313.519 35.3778 312.737 35.0558 311.922 35.0558H270.842C270.027 35.0558 269.245 35.3778 268.669 35.951C268.093 36.5241 267.769 37.3014 267.769 38.112C267.769 38.9225 268.093 39.6998 268.669 40.273C269.245 40.8461 270.027 41.1681 270.842 41.1681Z" fill="#3B3748"/>
<path fill-rule="evenodd" clip-rule="evenodd" d="M195.988 36.1953C195.988 21.2868 207.723 9.07652 222.682 7.66502L223.39 9.56704C215.804 14.9258 210.891 23.5824 210.891 33.3384C210.891 46.9586 220.475 58.4471 233.524 61.7848L233.537 63.8155C231.006 64.4977 228.339 64.8619 225.586 64.8619C209.269 64.8619 195.988 52.0567 195.988 36.1953Z" fill="#3B3748"/>
<path fill-rule="evenodd" clip-rule="evenodd" d="M231.762 10.5572L232.44 8.61852C246.366 10.355 257.192 21.6247 257.192 35.3598C257.192 44.279 252.618 52.1699 245.602 57.0715L244.083 55.6894C246.874 50.8394 248.457 45.2857 248.457 39.3825C248.457 27.3051 241.824 16.6651 231.762 10.5572Z" fill="#3B3748"/>
</svg>
