<svg width="12" height="20" viewBox="0 0 12 20" fill="none" xmlns="http://www.w3.org/2000/svg">
<path d="M7.76901 19.2944L11.0007 16.0619C11.1569 15.9056 11.2447 15.6937 11.2447 15.4727C11.2447 15.2518 11.1569 15.0399 11.0007 14.8836C10.8444 14.7274 10.6325 14.6396 10.4115 14.6396C10.1905 14.6396 9.97862 14.7274 9.82235 14.8836L6.85818 17.8461L6.85818 0.857747C6.85818 0.636734 6.77038 0.424772 6.6141 0.268492C6.45782 0.112211 6.24586 0.0244141 6.02485 0.0244141C5.80383 0.0244141 5.59187 0.112211 5.43559 0.268492C5.27931 0.424772 5.19152 0.636734 5.19152 0.857747L5.19151 17.8969L2.17902 14.8836C2.10162 14.8061 2.00971 14.7446 1.90855 14.7027C1.80738 14.6608 1.69894 14.6392 1.58943 14.6392C1.47992 14.6392 1.37148 14.6608 1.27031 14.7027C1.16915 14.7446 1.07724 14.8061 0.999847 14.8836C0.843622 15.0399 0.755859 15.2518 0.755859 15.4727C0.755859 15.6937 0.843622 15.9056 0.999847 16.0619L4.23235 19.2952C4.70221 19.7627 5.33807 20.025 6.00085 20.0249C6.66363 20.0247 7.29938 19.7621 7.76901 19.2944Z" fill="white"/>
</svg>
