<svg width="193" height="193" viewBox="0 0 193 193" fill="none" xmlns="http://www.w3.org/2000/svg">
<path d="M87 122.271C115.421 106.068 128.44 97.4222 132.007 104.482C134.223 108.444 120.81 114.702 114.171 119.686C123.367 115.059 139.086 105.217 142.013 109.944C146.397 115.465 130.974 122.385 124.636 128.171C130.431 125.437 144.658 113.673 149.076 117.74C154.375 123.179 137.119 140.954 90.9524 172" stroke="#3B3748" stroke-width="4" stroke-linecap="round" stroke-linejoin="round"/>
<path d="M123 44.8845C91.4711 65.4055 57.6752 82.222 22.2836 95C18.0769 82.4033 14.2719 69.0342 16.8262 56.0004C19.3804 42.9666 30.3311 30.628 43.6134 31.0086C54.8886 31.3326 64.0397 40.2743 70.146 49.7472C89.8309 41.7834 103.615 41.1107 122.992 44.8826" stroke="#3B3748" stroke-width="4" stroke-linecap="round" stroke-linejoin="round"/>
<path d="M65 132.492C61.3003 134.282 57.5339 136.093 53.4612 136.757C49.3884 137.421 44.8969 136.781 41.7871 134.126C38.0512 130.938 37.0882 125.363 38.6089 120.748C40.1295 116.133 43.7473 112.419 47.862 109.708C44.9958 113.737 42.0041 117.884 37.7105 120.424C33.417 122.964 27.4335 123.463 23.6271 120.255C21.6764 118.608 20.525 116.176 20.1482 113.683C19.3698 108.543 21.743 103.331 25.2619 99.4381C28.7809 95.5452 33.3637 92.7391 37.8761 90" stroke="#3B3748" stroke-width="4" stroke-linecap="round" stroke-linejoin="round"/>
<path d="M171.496 70C174.017 77.9409 176.567 86.1238 175.889 94.4137C175.211 102.704 170.529 111.243 162.558 114.046C156.086 116.324 148.57 114.339 143.279 110.031C137.987 105.723 134.721 99.3899 133 92.8544" stroke="#3B3748" stroke-width="4" stroke-linecap="round" stroke-linejoin="round"/>
<path d="M175 86L140 105" stroke="#3B3748" stroke-width="4" stroke-linecap="round" stroke-linejoin="round"/>
<path d="M150.033 82C154.593 80.9109 157.368 75.892 156.96 71.3111C156.552 66.7301 153.616 62.6947 150.096 59.6599C146.576 56.6252 142.422 54.3856 138.582 51.7408C134.741 49.0959 131.094 45.8883 129.224 41.6723C126.177 34.7979 129.019 25.9337 135.53 22" stroke="#3B3748" stroke-width="4" stroke-linecap="round" stroke-linejoin="round"/>
<path d="M97 61C110.373 70.8169 120.71 85.4249 126 102" stroke="#3B3748" stroke-width="4" stroke-linecap="round" stroke-linejoin="round"/>
<path d="M96 79C95.5116 80.4045 94.7169 81.6755 93.6769 82.7155C92.6369 83.7555 91.3792 84.537 90 85" stroke="#3B3748" stroke-width="4" stroke-linecap="round" stroke-linejoin="round"/>
</svg>
