<svg width="24" height="24" viewBox="0 0 24 24" fill="none" xmlns="http://www.w3.org/2000/svg">
<path d="M20 10.82C19.7348 10.82 19.4804 10.9254 19.2929 11.1129C19.1054 11.3004 19 11.5548 19 11.82V19C19 19.2652 18.8946 19.5196 18.7071 19.7071C18.5196 19.8946 18.2652 20 18 20H4C3.73478 20 3.48043 19.8946 3.29289 19.7071C3.10536 19.5196 3 19.2652 3 19V6C3 5.73478 3.10536 5.48043 3.29289 5.29289C3.48043 5.10536 3.73478 5 4 5H12.18C12.4452 5 12.6996 4.89464 12.8871 4.70711C13.0746 4.51957 13.18 4.26522 13.18 4C13.18 3.73478 13.0746 3.48043 12.8871 3.29289C12.6996 3.10536 12.4452 3 12.18 3H4C3.20435 3 2.44129 3.31607 1.87868 3.87868C1.31607 4.44129 1 5.20435 1 6V19C1 19.7956 1.31607 20.5587 1.87868 21.1213C2.44129 21.6839 3.20435 22 4 22H18C18.7956 22 19.5587 21.6839 20.1213 21.1213C20.6839 20.5587 21 19.7956 21 19V11.82C21 11.5548 20.8946 11.3004 20.7071 11.1129C20.5196 10.9254 20.2652 10.82 20 10.82ZM22.92 1.62C22.8185 1.37565 22.6243 1.18147 22.38 1.08C22.2598 1.02876 22.1307 1.00158 22 1H16C15.7348 1 15.4804 1.10536 15.2929 1.29289C15.1054 1.48043 15 1.73478 15 2C15 2.26522 15.1054 2.51957 15.2929 2.70711C15.4804 2.89464 15.7348 3 16 3H19.59L11.29 11.29C11.1963 11.383 11.1219 11.4936 11.0711 11.6154C11.0203 11.7373 10.9942 11.868 10.9942 12C10.9942 12.132 11.0203 12.2627 11.0711 12.3846C11.1219 12.5064 11.1963 12.617 11.29 12.71C11.383 12.8037 11.4936 12.8781 11.6154 12.9289C11.7373 12.9797 11.868 13.0058 12 13.0058C12.132 13.0058 12.2627 12.9797 12.3846 12.9289C12.5064 12.8781 12.617 12.8037 12.71 12.71L21 4.41V8C21 8.26522 21.1054 8.51957 21.2929 8.70711C21.4804 8.89464 21.7348 9 22 9C22.2652 9 22.5196 8.89464 22.7071 8.70711C22.8946 8.51957 23 8.26522 23 8V2C22.9984 1.86932 22.9712 1.74022 22.92 1.62Z" fill="#3B3748"/>
</svg>
