<svg width="149" height="20" viewBox="0 0 149 20" fill="none" xmlns="http://www.w3.org/2000/svg">
<path fill-rule="evenodd" clip-rule="evenodd" d="M144.743 15.4563C145.621 17.4583 145.836 17.6316 147.916 17.9125C148.083 18.026 147.97 18.8986 147.91 18.8866C147.784 18.8824 147.642 18.877 147.484 18.8711C146.749 18.8434 145.672 18.8029 144.324 18.8029C143.285 18.8029 142.189 18.8366 141.387 18.8612C140.925 18.8754 140.561 18.8866 140.362 18.8866C140.236 18.5226 140.236 18.1271 140.362 17.7631C140.898 17.704 141.427 17.6 141.946 17.4523C142.076 17.3934 142.18 17.2899 142.241 17.1605C142.301 17.0312 142.313 16.8846 142.274 16.7471C141.922 15.5519 141.211 13.6634 140.768 12.5638C140.745 12.5103 140.707 12.4639 140.66 12.4293C140.613 12.3947 140.558 12.3731 140.5 12.3666C140.004 12.3367 138.749 12.3367 137.733 12.3367C135.982 12.3367 135.82 12.3367 135.521 12.3666C135.451 12.3803 135.385 12.4101 135.328 12.4537C135.271 12.4972 135.224 12.5533 135.193 12.6176C135.091 12.9046 134.984 13.1991 134.878 13.4924C134.389 14.8485 133.908 16.1794 133.908 16.6216C133.908 17.1595 134.015 17.3567 134.81 17.5539C135.163 17.6376 135.766 17.7213 136.256 17.781C136.352 18.1541 136.325 18.5481 136.179 18.9045C135.984 18.9045 135.655 18.8941 135.23 18.8805C134.453 18.8558 133.354 18.8209 132.169 18.8209C131.953 18.8209 131.597 18.8266 131.186 18.8332C130.145 18.8499 128.754 18.8723 128.416 18.8209C127.746 18.7668 127.115 18.4889 126.623 18.032C125.635 17.2131 124.773 15.885 123.042 13.2177C122.815 12.868 122.573 12.4953 122.314 12.0977C121.334 10.6335 120.485 10.4662 119.78 10.4662C119.75 10.4662 119.696 10.5259 119.696 10.5797V16.036C119.726 16.9922 119.888 17.273 120.629 17.4703C120.951 17.5539 121.639 17.6675 122.236 17.7511C122.398 17.8647 122.344 18.7611 122.206 18.8747C121.609 18.8209 119.451 18.791 118.059 18.791C117.565 18.791 116.508 18.8236 115.348 18.8594C113.49 18.9168 111.37 18.9823 110.888 18.9344C110.145 18.8198 109.457 18.4749 108.921 17.9483C108.114 17.1768 106.988 15.2603 106.038 13.644C105.708 13.082 105.399 12.5562 105.133 12.1276C104.23 10.6634 103.824 10.3825 102.485 10.3825C102.461 10.3901 102.44 10.4052 102.425 10.4256C102.41 10.446 102.401 10.4707 102.401 10.4961C102.401 11.2205 102.416 12.3426 102.43 13.429C102.443 14.4487 102.455 15.4371 102.455 16.036C102.485 16.9922 102.646 17.3029 103.387 17.5001C103.716 17.5838 104.314 17.6675 104.911 17.7511C105.103 17.8647 104.995 18.7611 104.858 18.8747C104.597 18.8747 104.074 18.8588 103.483 18.8409C102.718 18.8177 101.839 18.791 101.272 18.791C100.744 18.791 99.9362 18.8141 99.1693 18.836C98.4767 18.8558 97.8177 18.8747 97.4292 18.8747C97.2646 18.5231 97.2348 18.1232 97.3456 17.7511L98.6543 17.5539C99.7181 17.3567 99.8316 16.8248 99.8854 15.3607V10.3287C98.3854 10.3287 97.7579 10.9742 97.1065 11.9841C96.5239 12.8909 95.8418 14.0417 95.1754 15.1658C94.9327 15.5753 94.692 15.9813 94.4591 16.3706C94.3178 16.5477 94.1893 16.7212 94.0651 16.8891C93.4219 17.7578 92.8905 18.4756 91.2678 18.7611C90.1455 18.8941 89.0146 18.9401 87.8853 18.8986C87.7596 18.5346 87.7596 18.139 87.8853 17.775C90.0128 17.4105 90.6403 17.0997 91.4291 16.1734C91.687 15.8626 92.4115 14.7761 93.0902 13.7581C93.6382 12.9362 94.1565 12.1589 94.3754 11.8706C95.224 10.6574 95.6065 10.2929 96.3416 9.87454C96.3532 9.84714 96.3592 9.81766 96.3592 9.78788C96.3592 9.7581 96.3532 9.72863 96.3416 9.70123C95.5049 9.0558 94.9073 7.96216 93.9511 6.0199C92.708 3.74298 92.3794 3.40234 91.5606 3.40234C90.8483 3.43045 90.1507 3.61402 89.5168 3.9402C89.4032 3.99398 89.212 3.68322 89.212 3.59955C89.2632 2.90172 89.4017 2.21307 89.6243 1.54972C89.6936 1.37431 89.8172 1.22564 89.9769 1.12541C90.3451 0.990788 90.7325 0.916135 91.1244 0.904297C92.8395 0.904297 93.7718 2.11148 94.5607 3.79676C95.1855 5.30947 95.933 6.76853 96.7958 8.15937C97.5189 9.11556 98.242 9.28289 99.9093 9.28289C99.9093 7.59766 99.9093 5.24881 99.8556 4.05374C99.8257 3.30074 99.7181 2.87046 98.9233 2.70313L97.5069 2.42225C97.3695 2.27882 97.3695 1.43617 97.5607 1.32263C97.7809 1.32263 98.1748 1.33605 98.6469 1.35215C99.3534 1.37623 100.235 1.40629 100.973 1.40629C101.905 1.40629 102.938 1.37267 103.694 1.34805C104.131 1.33384 104.475 1.32263 104.654 1.32263C104.747 1.49556 104.795 1.68847 104.795 1.88439C104.795 2.08031 104.747 2.27322 104.654 2.44615L104.628 2.45068C104.152 2.53199 103.805 2.59109 103.459 2.67324C102.611 2.84058 102.503 3.20512 102.473 4.22107C102.449 5.34459 102.419 7.53785 102.419 9.16935C102.419 9.22313 102.473 9.28289 102.587 9.28289C103.866 9.28289 104.654 9.0558 105.342 8.24304C106.06 7.22478 106.697 6.15175 107.248 5.03383C108.993 1.91427 109.955 0.904297 111.748 0.904297C112.1 0.951135 112.437 1.07566 112.734 1.26884C112.812 1.29275 112.925 1.63339 112.925 1.68717C112.844 2.44984 112.66 3.19783 112.376 3.91031C112.352 4.07765 112.131 4.07765 112.077 4.07765C111.564 3.74451 110.972 3.55089 110.362 3.51588C109.896 3.51588 109.352 4.02386 108.419 5.68524C108.325 5.85221 108.235 6.01054 108.15 6.16086C106.989 8.21111 106.671 8.77298 105.886 9.48011C105.865 9.50312 105.854 9.5329 105.854 9.56378C105.854 9.59465 105.865 9.62443 105.886 9.64744C106.625 10.0843 107.241 10.7011 107.678 11.4403C107.82 11.6606 108.028 12.0025 108.267 12.3965C108.845 13.3493 109.608 14.6064 110.069 15.1814L110.127 15.2551C111.618 17.1594 112.16 17.8513 114.479 17.7392C114.89 17.7187 115.3 17.6708 115.704 17.5958C116.768 17.4284 116.941 17.2671 117.001 15.8029V9.73111C117.001 9.17706 117.007 8.51138 117.013 7.82513C117.025 6.38697 117.038 4.85846 117.001 4.07765C116.971 3.32465 116.864 2.89436 116.069 2.72703C115.853 2.6791 115.598 2.63901 115.308 2.59329C115.091 2.5592 114.854 2.52197 114.599 2.47603C114.523 2.29949 114.492 2.1074 114.506 1.916C114.521 1.72459 114.581 1.53951 114.682 1.37642C114.889 1.37642 115.231 1.38844 115.655 1.40338C116.35 1.42783 117.267 1.46008 118.173 1.46008C119.086 1.46008 120.16 1.42728 120.964 1.40276C121.444 1.38811 121.827 1.37642 122.021 1.37642C122.183 1.48996 122.212 2.36248 122.021 2.49993C121.645 2.55664 121.272 2.63243 120.904 2.72703C120.055 2.89436 119.673 3.18122 119.673 4.27486V9.27692C119.673 9.33668 119.726 9.39047 119.834 9.39047C120.34 9.44241 120.851 9.38381 121.332 9.21871C121.812 9.0536 122.252 8.78595 122.619 8.43428C123.472 7.3866 124.203 6.24588 124.8 5.03383C126.629 1.71705 127.609 0.95808 129.33 0.95808C129.658 0.970455 129.977 1.0672 130.256 1.23896C130.35 1.3302 130.417 1.44624 130.448 1.57363C130.381 2.39232 130.198 3.19731 129.904 3.9641C129.874 4.07764 129.683 4.13741 129.629 4.13741C129.082 3.85997 128.492 3.67806 127.884 3.59955C127.394 3.59955 126.904 3.85653 125.834 5.7689C124.693 7.77092 124.065 8.82871 123.193 9.56378C123.172 9.59275 123.162 9.62715 123.162 9.66238C123.162 9.69762 123.172 9.73201 123.193 9.76099C123.73 10.0419 124.388 10.8307 125.583 12.5459C125.71 12.7138 125.869 12.9256 126.047 13.1631C126.674 13.999 127.539 15.1533 128.093 15.8328L128.159 15.9161C128.95 16.9202 129.537 17.6664 130.561 17.6256C131.446 17.5958 131.816 16.777 132.491 15.1754C133.693 12.2172 136.352 5.13543 136.95 3.30672C137.167 2.70629 137.348 2.09368 137.494 1.47203C137.832 1.49434 138.171 1.49434 138.509 1.47203C138.874 1.49724 139.239 1.49724 139.603 1.47203C139.741 2.03379 139.902 2.57165 140.093 3.13341C140.643 4.69917 143.679 12.9463 144.743 15.4563ZM139.902 10.8307C139.986 10.8307 140.063 10.6933 140.051 10.5797C139.967 10.342 139.867 10.0604 139.758 9.75051C139.193 8.15157 138.362 5.80068 137.972 4.85455C137.966 4.85455 137.956 4.8511 137.943 4.84682C137.907 4.83421 137.85 4.81438 137.81 4.85455C137.591 5.55884 137.255 6.50749 136.908 7.49077C136.518 8.59336 136.113 9.73951 135.838 10.6335C135.832 10.6736 135.839 10.7147 135.859 10.7503C135.878 10.7859 135.909 10.8142 135.946 10.8307H139.902Z" fill="#96949E"/>
<path d="M36.466 15.2532L36.3525 15.5102C36.5229 15.7215 36.7699 15.8569 37.0397 15.8867L37.213 15.6656C38.4519 13.9726 39.0836 11.9113 39.0059 9.81489C39.0059 5.4463 36.46 2.1116 32.3664 1.11358L32.0795 1.03589C31.9038 1.24496 31.8085 1.50984 31.8106 1.78291L32.0735 1.90841C32.3119 2.0068 32.5418 2.12473 32.7608 2.261C34.9899 3.56381 36.5736 6.39054 36.9979 9.82086C37.3098 11.6466 37.1262 13.5226 36.466 15.2532Z" fill="#96949E"/>
<path d="M30.2941 19.4305C27.306 19.4305 24.9155 18.546 23.2064 16.783C21.5054 14.9599 20.5908 12.5403 20.6605 10.0479C20.6239 8.89535 20.824 7.74757 21.2485 6.67547C21.673 5.60336 22.313 4.62972 23.1287 3.81471C24.4159 2.4886 26.0565 1.55943 27.8558 1.13739L28.1367 1.06567C28.2801 1.09555 28.4833 1.66329 28.4236 1.78879L28.1666 1.92027C27.898 2.0498 27.6419 2.20384 27.4016 2.38044C25.6566 3.76093 24.8976 6.48607 25.31 9.85066C25.4619 11.0443 25.7734 12.2121 26.2363 13.3228C26.5733 14.2721 27.0976 15.1439 27.7781 15.8866C28.3499 16.6144 29.0584 17.2235 29.8638 17.6794C30.6451 18.1108 31.5177 18.3505 32.4097 18.3787H32.6965C32.8101 18.4265 32.8459 19.048 32.7563 19.1436L32.4754 19.1974C31.7577 19.3465 31.0271 19.4246 30.2941 19.4305Z" fill="#96949E"/>
<path d="M0.978546 1.44227C1.65538 1.467 2.61602 1.5021 3.81985 1.5021C5.13995 1.5021 6.00584 1.46915 6.65086 1.44461C7.03369 1.43004 7.33872 1.41844 7.61473 1.41844C7.74319 1.77573 7.73252 2.16827 7.58485 2.51805C6.98723 2.6316 6.43742 2.73917 6.11471 2.82881C5.5649 2.99615 5.40354 3.27702 5.37366 4.09576C5.3417 4.664 5.34773 5.24068 5.35788 6.21211C5.36481 6.87533 5.37366 7.72255 5.37366 8.8767C5.3764 8.94454 5.39516 9.01077 5.42839 9.06998C5.46163 9.12918 5.50841 9.17968 5.5649 9.21734H9.98727C13.5366 9.21734 14.0511 9.21734 14.2961 9.16356C14.351 9.15752 14.4016 9.13057 14.4372 9.08828C14.4728 9.046 14.4907 8.99164 14.4873 8.93647V3.73121C14.5003 3.54623 14.454 3.36192 14.3551 3.20503C14.2563 3.04814 14.11 2.92683 13.9375 2.85869C13.3586 2.6585 12.7558 2.53592 12.1447 2.49415C11.9534 2.35072 12.0072 1.53796 12.1447 1.39453C12.4206 1.39453 12.8358 1.40826 13.3298 1.42459C14.0554 1.44858 14.9513 1.4782 15.826 1.4782C16.7871 1.4782 17.8913 1.44244 18.6559 1.41768C19.0608 1.40456 19.3705 1.39453 19.5133 1.39453C19.5931 1.56685 19.6344 1.75446 19.6344 1.94434C19.6344 2.13422 19.5931 2.32183 19.5133 2.49415C18.9856 2.54079 18.4645 2.645 17.9595 2.80491C17.326 3.02603 17.2722 3.40253 17.2184 4.32286C17.1647 5.24319 17.1647 6.57588 17.1647 9.80899C17.1647 12.313 17.1647 15.2951 17.2483 16.2812C17.3021 17.0402 17.5173 17.3509 18.0671 17.5183C18.7008 17.6904 19.3489 17.8044 20.0033 17.8589C20.1109 18.0262 20.0571 18.8988 19.842 18.9824C19.5801 18.9824 19.1106 18.9691 18.5457 18.9532C17.6923 18.929 16.621 18.8988 15.7184 18.8988C14.482 18.8988 13.2984 18.9394 12.4922 18.967L12.4912 18.967C12.3197 18.9729 12.1653 18.9782 12.0311 18.9824C11.8933 18.6206 11.8933 18.2207 12.0311 17.8589C12.6242 17.8178 13.2112 17.7136 13.7821 17.5481C14.2423 17.3808 14.3798 17.07 14.4634 16.3529C14.4993 15.7714 14.4873 14.3907 14.4754 13.009C14.4694 12.3177 14.4634 11.626 14.4634 11.0341C14.4554 10.9816 14.4297 10.9335 14.3905 10.8977C14.3514 10.8618 14.3012 10.8404 14.2483 10.8369H9.93348C7.80596 10.8369 5.70235 10.8369 5.45733 10.8907C5.40354 10.8907 5.34976 11.0042 5.34976 11.0341V16.072C5.40354 17.0282 5.59478 17.3091 6.33583 17.5063C6.92441 17.6687 7.52343 17.7905 8.12868 17.8708C8.22769 18.2531 8.17859 18.6587 7.99123 19.0063C7.91051 19.0063 7.74562 19.0002 7.50493 18.9913C6.85461 18.9672 5.65091 18.9227 4.0589 18.9227C2.74197 18.9227 1.67366 18.9593 0.950951 18.9841C0.581639 18.9967 0.302413 19.0063 0.126578 19.0063C0.000901476 18.6424 0.000901476 18.2468 0.126578 17.8828C0.314881 17.8525 0.487844 17.8264 0.647629 17.8023C1.08622 17.7363 1.42555 17.6851 1.71027 17.6019C2.45131 17.3569 2.61267 16.9565 2.67243 15.6597C2.70231 14.7035 2.70231 12.5939 2.70231 10.1437C2.70231 7.41254 2.70231 4.65752 2.67243 4.16748C2.61864 3.37862 2.51107 3.06786 1.88357 2.87065C1.29486 2.71576 0.695663 2.6039 0.0907198 2.53598C-0.0380671 2.17171 -0.0231066 1.77205 0.132553 1.41844C0.326242 1.41844 0.610421 1.42882 0.978546 1.44227Z" fill="#96949E"/>
<path d="M86.0146 13.9922C85.6671 14.8242 85.2471 15.6241 84.7596 16.3827C84.162 17.2253 83.7795 17.4524 83.0385 17.4524C81.6425 17.4906 80.2456 17.4447 78.8551 17.3149C78.6601 17.1989 78.4993 17.0332 78.3891 16.8348C78.2789 16.6364 78.2232 16.4124 78.2276 16.1854C78.1739 15.0619 78.1739 12.8687 78.1739 11.04C78.1739 10.9264 78.2515 10.8188 78.3352 10.8188C79.5902 10.8188 81.389 10.8188 82.2914 10.9025C82.4749 10.9169 82.6488 10.9905 82.7868 11.1124C82.9247 11.2342 83.0194 11.3975 83.0564 11.5778C83.1808 12.0001 83.2708 12.4318 83.3253 12.8687C83.7395 13.0241 84.196 13.0241 84.6102 12.8687C84.5803 11.9961 84.5564 11.0758 84.5564 10.1137C84.5564 9.29372 84.6372 8.47378 84.6991 7.84492C84.718 7.65333 84.7351 7.47947 84.7477 7.32876C84.3552 7.14641 83.9115 7.10627 83.4927 7.21521C83.4182 7.63323 83.3184 8.04635 83.1938 8.45228C83.1578 8.63876 83.0649 8.80952 82.9279 8.94112C82.791 9.07273 82.6167 9.15874 82.4289 9.18735C81.5023 9.27849 80.224 9.27525 78.9937 9.27213C78.7719 9.27157 78.5515 9.27101 78.3352 9.27101C78.2515 9.27101 78.1739 9.12758 78.1739 9.0738V3.58767C78.1739 3.42034 78.3412 3.02591 78.5563 2.99005C78.7245 2.96202 80.9641 2.97782 82.1303 2.98605C82.4557 2.98834 82.6975 2.99005 82.7875 2.99005C83.0849 2.97164 83.3785 3.065 83.6107 3.25185C83.8428 3.43869 83.9968 3.70553 84.0425 4.00003C84.2191 4.53717 84.3197 5.09638 84.3413 5.6614C84.7426 5.79667 85.1802 5.77532 85.5664 5.60164C85.6174 4.25094 85.7733 2.90625 86.0325 1.57967C86.0325 1.52589 85.9489 1.44222 85.8951 1.41234C85.2377 1.4721 83.7974 1.49601 82.7277 1.49601H77.2177C76.2971 1.49601 75.2904 1.46664 74.47 1.4427C73.9057 1.42624 73.4295 1.41234 73.13 1.41234C73.0416 1.57474 72.9885 1.75396 72.974 1.93828C72.9596 2.12261 72.9842 2.30791 73.0463 2.48208C73.5979 2.55245 74.1447 2.65622 74.6838 2.79284C75.2814 2.99005 75.4188 3.24105 75.4726 4.16736C75.5025 4.67533 75.5025 7.0658 75.5025 9.54592C75.5025 12.6655 75.5025 15.6237 75.4726 16.1197C75.4188 17.0221 75.1439 17.3568 74.5344 17.6018C74.131 17.7644 73.6936 17.824 73.2614 17.7751C72.0662 17.7751 71.7136 17.1237 70.9905 15.4564C69.9208 12.9523 66.8908 4.73509 66.347 3.15738C66.1454 2.61764 65.9817 2.0645 65.857 1.50198C65.4927 1.52217 65.1276 1.52217 64.7633 1.50198C64.4269 1.51989 64.0898 1.51989 63.7533 1.50198C63.6051 2.1209 63.4236 2.73136 63.2095 3.33069C62.6119 5.1594 59.9585 12.2232 58.7573 15.1755C57.9027 17.2193 57.5262 17.8229 55.9783 17.8169C55.3807 17.8169 54.1855 17.4345 54.066 16.5022C54.0062 15.3189 54.0062 9.94632 54.0062 9.94632C54.0062 7.77697 54.0062 5.35662 54.0899 4.14943C54.1735 3.13348 54.4723 2.95419 55.07 2.76893C55.529 2.65915 55.9939 2.57535 56.4624 2.51793C56.5999 2.40439 56.5999 1.47808 56.4624 1.41832C56.0875 1.41832 55.5234 1.43586 54.9118 1.45488C54.1877 1.4774 53.3971 1.50198 52.7751 1.50198C51.9498 1.50198 51.0798 1.47474 50.3327 1.45134C49.7705 1.43374 49.278 1.41832 48.9265 1.41832C48.7651 1.47808 48.7352 2.3506 48.8966 2.51793C49.4291 2.56953 49.9579 2.65335 50.4803 2.76893C51.299 2.99603 51.3289 3.24703 51.3827 4.06576C51.4237 4.90079 51.4195 6.33158 51.4152 7.78621C51.4139 8.23671 51.4125 8.6895 51.4125 9.12759C51.4125 9.27102 51.3827 9.30089 51.2452 9.35468C50.3139 9.7518 49.3114 9.95514 48.299 9.9523C46.6316 9.9523 44.5041 9.58775 44.4204 6.62954C44.4204 5.55983 44.4204 4.10158 44.4742 3.50998C44.528 2.91834 44.779 2.74503 46.1117 2.52391C46.1917 2.3482 46.2356 2.15819 46.2407 1.96518C46.2459 1.77218 46.2121 1.58011 46.1416 1.40039C46.0202 1.40039 45.7394 1.41314 45.3711 1.42986C44.6699 1.46171 43.6514 1.50796 42.8128 1.50796C42.108 1.50796 41.4087 1.48255 40.7808 1.45974C40.2693 1.44115 39.8053 1.42429 39.4243 1.42429C39.263 1.50796 39.2331 2.38048 39.3705 2.52391C39.629 2.57302 39.8584 2.61095 40.0641 2.64496C40.3339 2.68957 40.5629 2.72743 40.763 2.77491C41.5817 2.97212 41.773 3.37253 41.773 4.23907V6.34866C41.773 8.3208 42.0718 9.24711 42.4782 9.80887C43.4642 11.1655 44.9642 11.6017 47.038 11.6017C48.4883 11.5605 49.9137 11.2144 51.2213 10.5858C51.3289 10.532 51.3588 10.532 51.3588 10.6694C51.3588 11.8647 51.3588 13.8547 51.3289 15.4504C51.299 17.046 51.2452 17.4524 50.289 17.6735C49.9125 17.7572 49.3926 17.8468 48.7352 17.9305C48.5739 17.9305 48.5978 18.8568 48.7352 19.0241C49.1584 19.0241 49.7364 19.0067 50.3641 18.9877C51.1103 18.9651 51.9269 18.9405 52.6377 18.9405H58.56C59.7411 18.9405 60.7502 18.9754 61.4649 19.0001C61.8568 19.0136 62.1602 19.0241 62.3549 19.0241C62.4479 18.8535 62.503 18.6648 62.5165 18.4709C62.5299 18.277 62.5013 18.0824 62.4326 17.9006C61.947 17.8497 61.4642 17.7739 60.9864 17.6735C60.0899 17.4524 59.9525 17.0281 60.2214 16.1257C61.0402 13.4842 62.8748 8.18933 64.0462 4.87255C64.0663 4.8584 64.0903 4.85081 64.1149 4.85081C64.1395 4.85081 64.1635 4.8584 64.1836 4.87255C65.3311 7.86064 68.1697 15.8747 68.4387 16.8847C68.4888 17.0181 68.4857 17.1657 68.4301 17.2969C68.3745 17.4282 68.2706 17.533 68.1399 17.5898C67.6179 17.7557 67.0784 17.86 66.5323 17.9006C66.457 18.0783 66.4182 18.2694 66.4182 18.4624C66.4182 18.6554 66.457 18.8464 66.5323 19.0241C66.7311 19.0241 67.0945 19.013 67.5555 18.9988C68.3556 18.9741 69.4497 18.9405 70.4885 18.9405H75.7296C75.9163 18.9405 76.5276 18.9504 77.3681 18.964L77.3695 18.964C79.2197 18.994 82.1796 19.0421 84.168 19.0421C85.5604 19.0421 85.7756 18.815 85.913 18.4803C86.4602 17.1781 86.861 15.8191 87.1082 14.4285C86.7928 14.1816 86.4133 14.0302 86.0146 13.9922Z" fill="#96949E"/>
</svg>
