<svg width="60" height="44" fill="none" xmlns="http://www.w3.org/2000/svg"><path d="M12.247 0H5.145l.029 15.194h2.52V2.308h4.553V0Z" fill="#3B3748"/><path fill-rule="evenodd" clip-rule="evenodd" d="M7.845 25.455H5.41v3.524c-.956.122-1.88.429-2.72.903h-.001A5.43 5.43 0 0 0 .712 31.83l-.001.002A5.327 5.327 0 0 0 0 34.587a5.288 5.288 0 0 0 .71 2.75v.001a5.386 5.386 0 0 0 1.977 1.949c.84.479 1.764.788 2.721.91v3.517h2.436v-3.518a7.395 7.395 0 0 0 2.721-.91 5.386 5.386 0 0 0 1.977-1.948l-.153-.09.154.089c.48-.836.725-1.786.71-2.75a5.379 5.379 0 0 0-.71-2.755l-.001-.002a5.43 5.43 0 0 0-1.976-1.948h-.002a7.484 7.484 0 0 0-2.72-.904v-3.523ZM5.387 37.842a3.898 3.898 0 0 1-2.074-1.046A3.005 3.005 0 0 1 2.5 34.59v-.016a3.023 3.023 0 0 1 .814-2.207 3.926 3.926 0 0 1 2.074-1.045v6.52Zm5.143-2.062c-.14.377-.353.722-.628 1.016-.574.546-1.3.905-2.08 1.03v-6.498c.782.13 1.507.494 2.08 1.045a3.046 3.046 0 0 1 .815 2.207v.015c.017.403-.046.806-.187 1.185ZM20.947 2.28c1.06.777 1.797 2.004 2.066 3.531l.16.913-8.094 1.425c.236.769.667 1.378 1.223 1.77.6.424 1.357.605 2.204.455.759-.132 1.309-.421 1.718-.834.412-.414.694-.965.897-1.64l.055-.181 2.037.749-.033.152a5.061 5.061 0 0 1-4.336 3.94c-2.9.51-5.71-1.304-6.29-4.608a5.433 5.433 0 0 1 4.44-6.504c1.52-.266 2.891.053 3.953.831Zm-3.638 1.19c.733-.13 1.421-.03 1.975.28.504.282.907.742 1.135 1.384l-5.594.993a3.061 3.061 0 0 1 2.484-2.657ZM34.954 0h-8.105l-.256 4.702c-.102 1.85-.374 2.862-.806 3.684h-1.14v4.705h2.307v-2.413h7.194v2.413h2.346V8.386h-1.54V0Zm-6.106 4.8.137-2.492h3.46v6.079l-4.239.015c.38-.844.53-1.746.642-3.6V4.8Z" fill="#3B3748"/><path d="M11.987 15.776h2.515v4.021h4.428v-4.021h2.52v10.683h-2.52v-4.432h-4.428v4.432h-2.515V15.776ZM26.445 15.776H24.01v10.683h2.562l4.64-7.037v7.037h2.436V15.776h-2.562l-4.64 7.038v-7.038ZM41.16 15.565c-1.249-.222-2.314-.081-3.11.337-.8.419-1.32 1.113-1.47 1.971-.07.357-.07.723 0 1.08l.033.166 2.25-.325-.027-.178a1.278 1.278 0 0 1 0-.382c.042-.225.227-.432.564-.563.336-.131.805-.176 1.355-.079.553.098.927.282 1.147.512.212.222.293.502.232.839-.062.344-.235.614-.521.778-.29.167-.72.238-1.319.13h-.001l-.995-.17-.36 2.037 1.035.183c.65.115 1.111.322 1.39.591.269.261.379.593.304 1.007a1.265 1.265 0 0 1-.68.933c-.379.198-.918.271-1.61.149-.51-.091-.969-.299-1.277-.59-.303-.286-.458-.65-.383-1.082v-.002c.026-.16.085-.314.172-.45l.102-.163-1.997-1.073-.09.135c-.24.36-.403.766-.477 1.193-.17.961.067 1.873.684 2.601.614.726 1.595 1.256 2.895 1.486 1.422.25 2.599.086 3.468-.392a3.095 3.095 0 0 0 1.59-2.232c.123-.69-.012-1.293-.338-1.8-.244-.38-.593-.702-1.008-.966a2.612 2.612 0 0 0 1.813-2.102c.143-.814-.035-1.6-.595-2.24-.556-.637-1.473-1.11-2.777-1.34ZM49.84 15.776h-3.206l-.018 10.683h2.437v-6.58l2.676 6.58h2.05l2.698-6.587v6.587h2.414V15.776h-3.218l-2.914 7.558-2.92-7.558Z" fill="#3B3748"/><path fill-rule="evenodd" clip-rule="evenodd" d="M23.084 29.843c1.06.778 1.8 2.005 2.07 3.532l.16.913-8.093 1.425c.236.766.665 1.375 1.22 1.769.6.424 1.355.606 2.201.456.76-.132 1.31-.421 1.72-.834.413-.414.695-.965.895-1.64l.054-.181 2.039.748-.034.153a5.072 5.072 0 0 1-4.336 3.94c-2.9.51-5.71-1.316-6.29-4.608a5.43 5.43 0 0 1 2.4-5.73 5.42 5.42 0 0 1 2.047-.774c1.516-.266 2.886.053 3.947.831Zm-3.64 1.19c.737-.128 1.427-.028 1.98.281.505.282.906.742 1.132 1.385l-5.614 1.014a3.056 3.056 0 0 1 2.502-2.68Z" fill="#3B3748"/><path d="M27.162 32.432a5.492 5.492 0 0 0-.379 2.154 5.39 5.39 0 0 0 3.381 5.23 5.382 5.382 0 0 0 2.16.383 5.196 5.196 0 0 0 4.757-2.778l.077-.148-2.04-1.256-.083.184a2.802 2.802 0 0 1-2.701 1.645h-.01c-.869 0-1.61-.315-2.135-.874-.526-.56-.846-1.376-.846-2.402 0-1.023.334-1.84.868-2.4.534-.56 1.277-.875 2.113-.875h.007a2.75 2.75 0 0 1 2.598 1.585l.084.18 2.075-1.253-.064-.144c-.782-1.764-2.395-2.71-4.699-2.71a5.481 5.481 0 0 0-5.163 3.479ZM38.161 29.251h8.986v2.292h-3.222v8.392h-2.52l-.016-8.398H38.16v-2.286ZM51.743 6.451a.74.74 0 0 0 0 1.482h7.517a.74.74 0 0 0 0-1.482h-7.517ZM37.498 6.84c0-2.94 2.298-5.331 5.208-5.608l.11.07.298.805-.038.124c-1.3.924-2.137 2.411-2.137 4.083 0 2.332 1.633 4.312 3.873 4.888l.08.103.006.86-.08.103a5.912 5.912 0 0 1-1.547.205c-3.173 0-5.773-2.507-5.773-5.633ZM44.455 1.48l.114-.07c2.71.339 4.842 2.55 4.842 5.276 0 1.768-.902 3.326-2.273 4.289l-.133-.009-.64-.585-.02-.132c.48-.84.753-1.801.753-2.823 0-2.086-1.14-3.934-2.883-4.999l-.046-.126.286-.821Z" fill="#3B3748"/></svg>
