<svg fill="none" xmlns="http://www.w3.org/2000/svg" viewBox="0 0 480 283"><path d="M257.461 135.58c2.621-9.471 10.013-17.492 19.243-20.88M256.5 98.1a565.896 565.896 0 0 1-127.215 36.165c-2.05-15.76-3.47-32.334 2.366-47.076 5.837-14.743 21.199-26.777 36.434-23.33 12.926 2.929 21.487 15.507 26.424 28.021 24.457-4.915 40.494-2.59 61.991 6.22ZM168.5 134.265c-3.522 9.116-12.286 16.004-22 17.292a15.802 15.802 0 0 1 4.856 5.182 15.748 15.748 0 0 1 2.09 6.779 15.74 15.74 0 0 1-1.206 6.99 15.788 15.788 0 0 1-4.154 5.757M183.917 182.265c-1.013 2.185-1.498 4.648-1.406 7.127.093 2.479.76 4.884 1.932 6.959 1.221 2.038 2.892 3.655 4.838 4.681 1.946 1.026 4.095 1.423 6.219 1.148" stroke="#3B3748" stroke-width="4" stroke-linecap="round" stroke-linejoin="round"/><path d="M213.916 114.265c13.921 17.972 22.163 40.027 23.584 63.115l-36 13.885M197.5 132.265l-2 13M128.5 133.866c-9.879-3.799-22.089-.646-28.753 7.431-6.665 8.078-7.247 20.413-1.37 29.047-11.455-5.885-27.153.716-32.05 12.43-4.896 11.713.47 26.171 11.05 33.454 10.58 7.282 25.179 7.73 37.039 2.667M110.5 99.265l-17-2M99.5 78.265l15 4M122.5 68.265l-15-9M378.272 45.666c-1.75-6.124-.003-13.122 4.417-17.712 4.421-4.59 11.353-6.597 17.542-5.082 4.26 1.041 8.281 3.896 9.717 8.035s-.44 9.442-4.556 10.954c-3.098 1.137-6.729-.049-9.071-2.376-2.342-2.327-3.544-5.592-4.017-8.857-1.138-7.83 1.764-16.148 7.532-21.56 5.769-5.412 14.246-7.808 21.995-6.192M308.775 91.116c-3.564-14.162-1.703-29.712 4.511-38.496 3.22-4.55 9.487-8.179 14.92-6.566 3.304.98 8.49 5.941 9.026 13.168 1.149 15.452-14.571 28.543-21.264 39.428 8.417-4.413 17.204-8.759 26.681-9.444 9.477-.685 19.904 3.15 24.309 11.565 4.636 8.86.865 20.755-7.372 26.43-8.236 5.676-19.752 5.406-28.5.537-8.748-4.869-14.799-13.752-17.643-23.336a61.57 61.57 0 0 1 2.807 39.134c-1.795 6.853-6.647 14.562-13.692 13.806-7.762-.83-10.393-10.854-9.962-18.645a81.966 81.966 0 0 1 12.585-39.194c-10.308.17-21.337.135-29.905-5.593-8.567-5.728-12.442-19.45-4.795-26.371 6.723-6.075 16.808-6.105 24.353.398 6.866 5.915 12.351 14.252 13.933 23.175" stroke="#3B3748" stroke-width="4" stroke-linecap="round" stroke-linejoin="round"/><path d="M318.874 121.744c11.478 18.897 18.257 40.441 20.268 62.439M339.152 179.299c12.557-32.019 39.778-57.952 72.379-68.955-15.961 28.954-42.042 55.782-72.379 68.955ZM336.516 203.583c-3.48 4.381-7.42 8.691-10.09 11.911 6.815-4.716 20.067-25.806 26.345-22.292 11.637 7.43-45.893 89.475-119.336 86.74" stroke="#3B3748" stroke-width="4" stroke-linecap="round" stroke-linejoin="round"/><path d="M207.005 232.299c67.247 11.098 112.269-62.048 121.969-49.837 3.481 3.986-9.719 18.481-17.205 26.035 10.768-7.827 26.246-27.086 30.748-22.41 3.997 3.203-.407 10.444-6.003 17.495" stroke="#3B3748" stroke-width="4" stroke-linecap="round" stroke-linejoin="round"/></svg>