<svg fill="none" xmlns="http://www.w3.org/2000/svg" viewBox="0 0 480 248"><path d="M244.5 127c-3.267 6.289-9.797 10.898-17 12M40.5 30.291a27.297 27.297 0 0 0 21.614 3.376c3.396-.915 6.811-2.695 8.442-5.817 1.791-3.434.766-8.117-2.352-10.407-3.12-2.29-7.957-1.808-10.496 1.115-3.553 4.085-1.828 10.582 1.264 15.033C65.25 42.632 76.56 47.899 87.5 46.873M282.501 178c-84.271 13.145-160.13-10.068-159.319 9.234 2.024 7.522 23.197 9.024 37.231 11.121-17.763.213-45.138-6.246-45.596 3.462-.918 11.112 29.472 10.612 43.625 14.026-11.061.387-47.98-9.945-48.909 1.686-2.236 19.556 108.21 34.669 186.967 18.895" stroke="#3B3748" stroke-width="4" stroke-linecap="round" stroke-linejoin="round"/><path d="M254.556 178c-.706-20.129 5.365-46.132 14.944-64M283.5 127l-1 12M282.5 94.552c10.178-18.362 35.008-26.72 54.072-18.216 19.064 8.504 29.639 32.684 23.029 52.64 8.783-4.636 20.958-.76 25.517 8.124 4.56 8.884.678 21.157-8.138 25.729 16.711 3.667 34.129 7.673 47.271 18.724 13.143 11.05 20.272 31.451 11.137 46.042-8.474 13.539-27.256 16.756-42.646 12.872-19.636-4.965-36.625-19.622-44.541-38.422" stroke="#3B3748" stroke-width="4" stroke-linecap="round" stroke-linejoin="round"/><path d="M310.5 109c3.403 13.736 14.556 25.17 28 28.705-6.064 3.106-10.564 9.211-11.804 16.017-1.24 6.806.805 14.155 5.369 19.278M146.5 15l-3-13M159.5 2v12M171.5 16l4-14M183.5 179l3-25M143.5 154l3 24M181.5 47l-6.3 51h-32.175L136.5 47M240.5 181v-27M202.5 154l2 26M149.5 106l-6.057 43H111.5v-43M121.5 198l4-40M87.985 158 86.5 205h29M207.23 104l1.27 45h-31.391l-6.609-45M136.5 67l40-1M111.5 122l33 5M174.5 122l34-2M87.5 167l37 3M146.5 165l38-2M205.5 170l34-5" stroke="#3B3748" stroke-width="4" stroke-linecap="round" stroke-linejoin="round"/></svg>