<svg width="24" height="14" viewBox="0 0 24 14" fill="none" xmlns="http://www.w3.org/2000/svg">
<path d="M23.124 4.90699L19.245 1.02899C19.0575 0.841521 18.8032 0.736206 18.538 0.736206C18.2728 0.736206 18.0185 0.841521 17.831 1.02899V1.02899C17.6435 1.21652 17.5382 1.47083 17.5382 1.73599C17.5382 2.00116 17.6435 2.25546 17.831 2.44299L21.386 5.99999H1C0.734784 5.99999 0.48043 6.10535 0.292893 6.29289C0.105357 6.48042 0 6.73478 0 6.99999H0C0 7.26521 0.105357 7.51956 0.292893 7.7071C0.48043 7.89464 0.734784 7.99999 1 7.99999H21.447L17.831 11.615C17.738 11.7079 17.6643 11.8182 17.6139 11.9396C17.5636 12.061 17.5377 12.1911 17.5377 12.3225C17.5377 12.4539 17.5636 12.584 17.6139 12.7054C17.6643 12.8268 17.738 12.9371 17.831 13.03C18.0185 13.2175 18.2728 13.3228 18.538 13.3228C18.8032 13.3228 19.0575 13.2175 19.245 13.03L23.125 9.15099C23.6859 8.58716 24.0007 7.82412 24.0006 7.02879C24.0004 6.23345 23.6852 5.47056 23.124 4.90699Z" fill="#3B3748"/>
</svg>
